<svg xmlns="http://www.w3.org/2000/svg" data-name="Capa 1" viewBox="0 0 442.18 442.18"><path d="M316.54 176.61a2.71 2.71 0 0 0-3.08-1.88q-10.86 1.38-22.44 3.1a1.55 1.55 0 0 1-1.53-2.4c2.22-3.19 4.75-7.25 5-9.42a16.3 16.3 0 0 0-1.65-8.71c-1.26-2.06-5-5.54-7.12-6.29-7-2.44-17.86-2.52-29 5.24-5.72 4-12.57 18.09-16 24.29.5-1.63 1.26-4 2.3-7.23s1.79-5.61 2.29-7.24q.54-1.5 1.51-4.55t1.43-4.66a7.57 7.57 0 0 1 .31-.85c.15-.37.24-.65.3-.84l.31-1.13c.1-.25.24-.64.41-1.18s.31-.92.42-1.18l.68-1.69a5.24 5.24 0 0 0-.23-4.65 3.64 3.64 0 0 0-3.05-2.26c-1.23 0-2.24.74-3 2.3q-2.1 5.18-4 11t-4.37 14l-3.38 11.27-1 3.13a4.87 4.87 0 0 0-.52.37 388.86 388.86 0 0 1-35.59 30.14 438.29 438.29 0 0 1-41.35 28.53 13.46 13.46 0 0 0-1.45.84l-1.53.95c-.19.12-.66.38-1.4.8s-1.29.71-1.68.89l-1.53.71a18.49 18.49 0 0 1-1.83.74c-.58.2-1.15.38-1.73.54-2.56.71-4.55.67-6-.15a4.75 4.75 0 0 1-2.45-3.83 10.4 10.4 0 0 1 0-2.73v-.41c.13-.52.39-1.29.77-2.32a123.81 123.81 0 0 1 7.2-15.24q8.25-15.54 29.17-49.59 10-16.26 37.23-59.38 24-38 30.8-49.29c.64-1 1.53-2.52 2.69-4.57.64-1.06.35-2-.87-2.66a7 7 0 0 0-4.46-.77 4.46 4.46 0 0 0-3.59 1.89Q227.1 71 203 109.29q-24.47 38.61-38.57 61.51-21.3 34.53-30.7 52.08a121.05 121.05 0 0 0-7.39 15.72 15.72 15.72 0 0 0-1.06 7.06 10 10 0 0 0 6.33 8.3q6.33 2.91 15.06.54a45.59 45.59 0 0 0 5-1.66 41.83 41.83 0 0 0 5.18-2.52c1.86-1 3.21-1.82 4.08-2.34s2.4-1.51 4.6-3l3.88-2.55q9.79-6.3 21.68-15c13.9-10.16 25.89-19.68 36.17-28.65-4.77 15.49-10.34 33.7-16.73 54.76q-14.13 46.56-23.67 78.51c-.51 1.74-1.12 3.79-1.81 6.17-1.35 4.64-2.44 8.33-3.24 11.09s-1.74 6.09-2.81 10-2 7.53-2.82 10.85c-.05.18-.11.49-.19.89s-.13.7-.18.89a4.54 4.54 0 0 0 .94 4.32 3.33 3.33 0 0 0 3.49 1.18c1.31-.35 2.16-1.4 2.57-3.15q1.13-5.55 2.7-11.27t4.07-13.91q2.49-8.18 3.31-11c1.17-4 1.53-5.34 1.38-4.95q9.51-31.87 20-66.31 10.68-35.5 20.54-67.27s.35-1.12.4-1.18c5-11.32 10.1-18.61 16.08-27.14l.79-1.13c4.72-6.79 15.72-12.61 19.65-13 .71-.25 4-.37 4.69-.48a20.36 20.36 0 0 1 6.42 1.11c2.22 1 3.11 3.59 3.39 4.62a15.8 15.8 0 0 1-.46 5.62c-.14.35-.91 1.68-1.06 2.12-1.14 1.74-3.77 4-8.14 7.91-.55.5-1.43 1.25-2.63 2.26-.25.06-1.23.21-2.94.47l-3.16.47c-.4.06-1.38.23-2.94.52a23.26 23.26 0 0 0-3.12.71c-.53.18-1.47.5-2.82.93a16.79 16.79 0 0 0-3 1.23l-2.59 1.5a12.59 12.59 0 0 0-2.64 2c-.68.69-1.4 1.48-2.18 2.35a16.09 16.09 0 0 0-2.07 2.91 4.48 4.48 0 0 0-.34 3.38 5.11 5.11 0 0 0 1.69 2.82 8.44 8.44 0 0 0 3.92 1.64 10.23 10.23 0 0 0 4.67-.47 38.18 38.18 0 0 0 4.06-1.51c1.06-.47 2.41-1.14 4.07-2a72.86 72.86 0 0 0 12.19-8.28l1.77-.28 1.77-.28q16.71-2.72 33.26-4.78a3.71 3.71 0 0 0 3.08-2.64 6 6 0 0 0 0-4.47Z" style="stroke:#93c5fd;fill:#93c5fd;stroke-miterlimit:10;stroke-width:8px"/><circle cx="221.09" cy="221.09" r="214.09" style="fill:none;stroke-linecap:round;stroke-linejoin:round;stroke-width:14px;stroke:#93c5fd"/></svg>