<svg xmlns="http://www.w3.org/2000/svg" xml:space="preserve" style="enable-background:new 0 0 64 64" viewBox="0 0 64 64"><path d="M64 49.6c-2.3.6-3.8 0-5.1-1.9L49.8 35l-1.3-1.8-10.8 14.5c-1.2 1.7-2.5 2.5-4.8 1.9l13.7-18.4-12.8-16.7c2.2-.4 3.7-.2 5.1 1.8l9.5 12.9L58 16.3c1.2-1.7 2.6-2.4 4.8-1.8l-5 6.6-6.7 8.8c-.8 1-.7 1.7 0 2.7l12.9 17zM0 30.9l1.1-5.5c3.1-10.9 15.6-15.5 24.2-8.7 5.1 4 6.3 9.6 6.1 15.9H3c-.4 11.3 7.7 18.2 18.1 14.7 3.6-1.2 5.8-4.1 6.9-7.7.5-1.8 1.5-2.1 3.1-1.6-.9 4.5-2.8 8.2-6.9 10.5C18.1 52 9.3 50.9 4.7 46 2 43.2.9 39.6.4 35.8.3 35.2.1 34.6 0 34v-3.1zm3-.8h25.7c-.2-8.2-5.3-14-12.3-14.1C8.8 16 3.3 21.6 3 30.1z" style="fill:#f0f8ff"/></svg>