<svg xmlns="http://www.w3.org/2000/svg" data-name="Capa 1" viewBox="0 0 436.18 436.18"><path d="M337.31 163.31a3.39 3.39 0 0 0-3.85-2.35q-13.56 1.72-28 3.88a1.94 1.94 0 0 1-1.91-3c2.77-4 5.93-9.06 6.21-11.77.38-3.29-.5-8.28-2.07-10.87s-6.26-6.92-8.89-7.86c-8.77-3.05-22.31-3.15-36.22 6.55-7.14 5-15.7 22.59-20 30.33.63-2 1.58-5.05 2.87-9s2.24-7 2.87-9q.66-1.87 1.88-5.69t1.79-5.81a9.89 9.89 0 0 1 .38-1.06c.19-.47.31-.82.38-1.06l.38-1.41c.13-.31.3-.8.52-1.47s.39-1.15.52-1.47l.85-2.11a6.55 6.55 0 0 0-.28-5.81q-1.5-2.76-3.81-2.82c-1.54 0-2.8.92-3.81 2.87q-2.62 6.47-5 13.67t-5.45 17.54l-4.23 14.08-1.21 3.91a5 5 0 0 0-.64.46 487.34 487.34 0 0 1-44.46 37.64 545.25 545.25 0 0 1-51.65 35.64 17.45 17.45 0 0 0-1.8 1l-1.92 1.19c-.24.15-.82.48-1.74 1s-1.62.89-2.1 1.11l-1.92.89q-1.2.56-2.28.93c-.72.25-1.44.47-2.16.67-3.2.89-5.69.83-7.49-.19a5.9 5.9 0 0 1-3.06-4.78 12.17 12.17 0 0 1 0-3.41v-.52a29.43 29.43 0 0 1 1-2.89q2.28-6.45 9-19 10.31-19.41 36.43-61.94 12.47-20.31 46.5-74.16 30-47.49 38.47-61.57c.8-1.23 1.92-3.14 3.36-5.7q1.2-2-1.08-3.33a8.81 8.81 0 0 0-5.57-1q-3.3.38-4.49 2.37-8 13.41-38.11 61.27-30.56 48.22-48.17 76.83-26.63 43.1-38.35 65.02-6.83 12.75-9.23 19.63a19.87 19.87 0 0 0-1.32 8.82q.84 7.19 7.91 10.37 7.91 3.63 18.81.67a59.84 59.84 0 0 0 6.23-2.07 52.62 52.62 0 0 0 6.47-3.15c2.32-1.31 4-2.28 5.09-2.93s3-1.88 5.75-3.7 4.37-2.89 4.85-3.19q12.22-7.86 27.08-18.67C198 214.2 213 202.31 225.79 191.11q-8.94 29-20.89 68.39-17.65 58.15-29.57 98.06c-.64 2.17-1.39 4.73-2.26 7.71q-2.53 8.69-4 13.85t-3.52 12.5q-2 7.33-3.52 13.55c-.06.23-.14.61-.23 1.11s-.17.88-.23 1.11a5.69 5.69 0 0 0 1.17 5.4 4.16 4.16 0 0 0 4.37 1.47c1.63-.43 2.69-1.74 3.2-3.93q1.41-6.93 3.38-14.08t5.08-17.37q3.11-10.22 4.14-13.73c1.45-5 1.9-6.67 1.72-6.18q11.88-39.81 24.94-82.82 13.35-44.35 25.66-84s.43-1.4.49-1.48c6.24-14.14 12.62-23.24 20.09-33.89l1-1.41c5.89-8.49 19.63-15.76 24.54-16.19.88-.31 4.95-.46 5.86-.6a25.71 25.71 0 0 1 8 1.38c2.77 1.23 3.88 4.49 4.23 5.78.4 1.53-.17 6-.57 7-.18.44-1.14 2.1-1.33 2.65-1.42 2.18-4.71 5-10.16 9.88-.69.63-1.79 1.56-3.29 2.82-.31.08-1.54.27-3.67.59l-3.95.59c-.5.08-1.72.29-3.67.65a30.54 30.54 0 0 0-3.9.88c-.66.23-1.83.63-3.52 1.17a21.18 21.18 0 0 0-3.76 1.53l-3.24 1.88a15.48 15.48 0 0 0-3.29 2.46c-.85.86-1.75 1.84-2.73 2.93a20.39 20.39 0 0 0-2.58 3.64 5.53 5.53 0 0 0-.42 4.22 6.33 6.33 0 0 0 2.11 3.52 10.44 10.44 0 0 0 4.89 2.05 12.72 12.72 0 0 0 5.83-.59 49.77 49.77 0 0 0 5.08-1.88q2-.89 5.08-2.52a91.09 91.09 0 0 0 15.23-10.33l2.21-.35 2.21-.35q20.86-3.4 41.54-6a4.62 4.62 0 0 0 3.85-3.29 7.45 7.45 0 0 0-.05-5.59Z" style="fill:#2d2d2d"/><circle cx="218.09" cy="218.09" r="214.09" style="fill:none;stroke:#2d2d2d;stroke-linecap:round;stroke-linejoin:round;stroke-width:8px"/></svg>